<?xml version="1.0" encoding="iso-8859-1"?>
<!-- Uploaded to: SVG Repo, www.svgrepo.com, Generator: SVG Repo Mixer Tools -->
<!DOCTYPE svg PUBLIC "-//W3C//DTD SVG 1.1//EN" "http://www.w3.org/Graphics/SVG/1.1/DTD/svg11.dtd">
<svg fill="#60A5FA" version="1.1" id="Capa_1" xmlns="http://www.w3.org/2000/svg" xmlns:xlink="http://www.w3.org/1999/xlink" 
	 width="800px" height="800px" viewBox="0 0 260.909 260.91"
	 xml:space="preserve">
<g>
	<g>
		<polygon points="87.808,57.891 83.831,57.891 83.831,75.782 74.329,75.782 74.329,89.038 83.831,89.038 83.831,109.914 
			87.808,109.914 87.808,89.038 98.413,89.038 98.413,75.782 87.808,75.782 		"/>
		<polygon points="133.323,56.403 129.347,56.403 129.347,74.293 119.84,74.293 119.84,87.549 129.347,87.549 129.347,108.425 
			133.323,108.425 133.323,87.549 143.929,87.549 143.929,74.293 133.323,74.293 		"/>
		<polygon points="178.834,54.906 174.857,54.906 174.857,72.796 165.355,72.796 165.355,86.053 174.857,86.053 174.857,106.933 
			178.834,106.933 178.834,86.053 189.438,86.053 189.438,72.796 178.834,72.796 		"/>
		<path d="M27.674,260.91h205.561c14.644,0,26.512-11.873,26.512-26.512V26.512C259.747,11.874,247.879,0,233.235,0H27.674
			C13.028,0,1.162,11.874,1.162,26.512v207.886C1.162,249.037,13.028,260.91,27.674,260.91z M85.819,243.243
			c-6.349,0-11.49-5.143-11.49-11.49c0-6.349,5.142-11.49,11.49-11.49c6.346,0,11.49,5.142,11.49,11.49
			C97.31,238.1,92.17,243.243,85.819,243.243z M85.819,211.982c-6.349,0-11.49-5.137-11.49-11.485
			c0-6.348,5.142-11.495,11.49-11.495c6.346,0,11.49,5.147,11.49,11.495C97.31,206.845,92.17,211.982,85.819,211.982z
			 M85.819,180.732c-6.349,0-11.49-5.142-11.49-11.49s5.142-11.49,11.49-11.49c6.346,0,11.49,5.142,11.49,11.49
			S92.17,180.732,85.819,180.732z M98.413,143.387H73.226v-12.93h25.187V143.387z M131.887,243.243
			c-6.346,0-11.49-5.143-11.49-11.49c0-6.349,5.144-11.49,11.49-11.49c6.346,0,11.487,5.142,11.487,11.49
			C143.374,238.1,138.232,243.243,131.887,243.243z M117.856,143.387v-12.93h25.187v12.93H117.856z M131.887,211.982
			c-6.346,0-11.49-5.137-11.49-11.485c0-6.348,5.144-11.495,11.49-11.495c6.346,0,11.487,5.147,11.487,11.495
			C143.374,206.845,138.232,211.982,131.887,211.982z M131.887,180.732c-6.346,0-11.49-5.142-11.49-11.49s5.144-11.49,11.49-11.49
			c6.346,0,11.487,5.142,11.487,11.49S138.232,180.732,131.887,180.732z M177.948,243.243c-6.348,0-11.49-5.143-11.49-11.49
			c0-6.349,5.143-11.49,11.49-11.49c6.344,0,11.49,5.142,11.49,11.49C189.438,238.1,184.302,243.243,177.948,243.243z
			 M162.486,143.387v-12.93h25.187v12.93H162.486z M177.948,211.982c-6.348,0-11.49-5.137-11.49-11.485
			c0-6.348,5.143-11.495,11.49-11.495c6.344,0,11.49,5.147,11.49,11.495C189.438,206.845,184.302,211.982,177.948,211.982z
			 M177.948,180.732c-6.348,0-11.49-5.142-11.49-11.49s5.143-11.49,11.49-11.49c6.344,0,11.49,5.142,11.49,11.49
			S184.302,180.732,177.948,180.732z M61.296,12.816h2.768H197.17h5.302v108.036H61.296V12.816z M53.342,245.458h-33.14v-66.942
			h33.14V245.458z M32.35,18.124c3.902,0,7.068,3.166,7.068,7.068c0,3.904-3.166,7.068-7.068,7.068s-7.068-3.164-7.068-7.068
			C25.282,21.29,28.448,18.124,32.35,18.124z M32.35,43.755c3.902,0,7.068,3.166,7.068,7.068c0,3.904-3.166,7.068-7.068,7.068
			s-7.068-3.164-7.068-7.068C25.282,46.921,28.448,43.755,32.35,43.755z M17.773,69.376h30.929v4.862H17.773V69.376z
			 M17.773,162.609h30.929v4.862H17.773V162.609z"/>
	</g>
</g>
</svg>